<?xml version="1.0" encoding="UTF-8" standalone="no"?>
<svg
   xmlns:dc="http://purl.org/dc/elements/1.1/"
   xmlns:cc="http://creativecommons.org/ns#"
   xmlns:rdf="http://www.w3.org/1999/02/22-rdf-syntax-ns#"
   xmlns:svg="http://www.w3.org/2000/svg"
   xmlns="http://www.w3.org/2000/svg"
   xmlns:sodipodi="http://sodipodi.sourceforge.net/DTD/sodipodi-0.dtd"
   xmlns:inkscape="http://www.inkscape.org/namespaces/inkscape"
   version="1.1"
   id="svg2"
   xml:space="preserve"
   width="698.40002"
   height="698.40002"
   viewBox="0 0 698.40002 698.40002"
   sodipodi:docname="zoom-icon-seeklogo.com-3.eps"><metadata
     id="metadata8"><rdf:RDF><cc:Work
         rdf:about=""><dc:format>image/svg+xml</dc:format><dc:type
           rdf:resource="http://purl.org/dc/dcmitype/StillImage" /></cc:Work></rdf:RDF></metadata><defs
     id="defs6"><clipPath
       clipPathUnits="userSpaceOnUse"
       id="clipPath20"><path
         d="M 2619,5238 C 4065.43,5238 5238,4065.43 5238,2619 5238,1172.57 4065.43,0 2619,0 1172.57,0 0,1172.57 0,2619 0,4065.43 1172.57,5238 2619,5238 Z"
         id="path18" /></clipPath><clipPath
       clipPathUnits="userSpaceOnUse"
       id="clipPath30"><path
         d="M 2619,5187 C 4037.27,5187 5187,4037.27 5187,2619 5187,1200.73 4037.27,51 2619,51 1200.73,51 50.9961,1200.73 50.9961,2619 50.9961,4037.27 1200.73,5187 2619,5187 Z"
         id="path28" /></clipPath><clipPath
       clipPathUnits="userSpaceOnUse"
       id="clipPath40"><path
         d="M 2619,4981 C 3923.5,4981 4981,3923.5 4981,2619 4981,1314.5 3923.5,257 2619,257 1314.5,257 257,1314.5 257,2619 c 0,1304.5 1057.5,2362 2362,2362 z"
         id="path38" /></clipPath><clipPath
       clipPathUnits="userSpaceOnUse"
       id="clipPath50"><path
         d="M 1078,3359 V 2249 c 1,-251 206,-453 456,-452 h 1618 c 46,0 83,37 83,82 v 1110 c -1,251 -206,453 -456,452 H 1161 c -46,0 -83,-37 -83,-82 z m 2260,-433 668,488 c 58,48 103,36 103,-51 V 1875 c 0,-99 -55,-87 -103,-51 l -668,487 z"
         id="path48" /></clipPath></defs><sodipodi:namedview
     pagecolor="#ffffff"
     bordercolor="#666666"
     borderopacity="1"
     objecttolerance="10"
     gridtolerance="10"
     guidetolerance="10"
     inkscape:pageopacity="0"
     inkscape:pageshadow="2"
     inkscape:window-width="640"
     inkscape:window-height="480"
     id="namedview4" /><g
     id="g10"
     inkscape:groupmode="layer"
     inkscape:label="ink_ext_XXXXXX"
     transform="matrix(1.3333333,0,0,-1.3333333,0,698.4)"><g
       id="g12"
       transform="scale(0.1)"><g
         id="g14"><g
           id="g16"
           clip-path="url(#clipPath20)"><path
             d="M -129.004,5367 H 5366 V -128 H -129.004 v 5495"
             style="fill:#e5e5e4;fill-opacity:1;fill-rule:nonzero;stroke:none"
             id="path22" /></g></g><g
         id="g24"><g
           id="g26"
           clip-path="url(#clipPath30)"><path
             d="M -77,5315 H 5316 V -78 H -77 v 5393"
             style="fill:#ffffff;fill-opacity:1;fill-rule:nonzero;stroke:none"
             id="path32" /></g></g><g
         id="g34"><g
           id="g36"
           clip-path="url(#clipPath40)"><path
             d="M 128,5110 H 5110 V 128 H 128 v 4982"
             style="fill:#4a8cff;fill-opacity:1;fill-rule:nonzero;stroke:none"
             id="path42" /></g></g><g
         id="g44"><g
           id="g46"
           clip-path="url(#clipPath50)"><path
             d="M 950.004,3569 H 4237 V 1669 H 950.004 v 1900"
             style="fill:#ffffff;fill-opacity:1;fill-rule:nonzero;stroke:none"
             id="path52" /></g></g></g></g></svg>
